<svg
            version="1.0"
            xmlns="http://www.w3.org/2000/svg"
            viewBox="0 0 512.000000 512.000000"
            preserveAspectRatio="xMidYMid meet"
          >
            <defs>
              <linearGradient id="color" x1="0%" y1="0%" x2="100%" y2="0%">
                <stop
                  offset="20%"
                  style="stop-color: #7953cd; stop-opacity: 1"
                />
                <stop
                  offset="30%"
                  style="stop-color: #00affa; stop-opacity: 1"
                />
                <stop
                  offset="70%"
                  style="stop-color: #0190cd; stop-opacity: 1"
                />
                <stop
                  offset="80%"
                  style="stop-color: #764ada; stop-opacity: 1"
                />
              </linearGradient>
            </defs>
            <g
              transform="translate(0.000000,512.000000) scale(0.100000,-0.100000)"
              fill="url(#color)"
              stroke="none"
            >
              <path
                d="M1770 4709 l-735 -259 -455 0 c-427 0 -458 -2 -497 -20 -25 -11 -51
-33 -63 -52 -20 -33 -20 -46 -20 -1778 0 -1724 0 -1745 20 -1778 11 -18 34
-41 52 -52 32 -19 52 -20 731 -20 l697 0 0 -145 0 -145 -222 0 c-234 0 -287
-7 -326 -43 -75 -69 -67 -188 17 -244 l34 -23 1557 0 1557 0 34 23 c84 56 92
175 17 244 -39 36 -92 43 -325 43 l-223 0 0 145 0 145 698 0 c678 0 698 1 730
20 18 11 41 34 52 52 20 33 20 54 20 1778 0 1732 0 1745 -20 1778 -12 19 -38
41 -63 52 -39 18 -69 20 -457 20 l-415 0 -780 260 c-633 211 -789 260 -830
259 -38 -1 -227 -64 -785 -260z m1340 -237 c293 -98 530 -181 524 -184 -5 -3
-248 -85 -540 -182 l-531 -177 -489 172 c-269 94 -502 176 -518 182 -26 9 19
27 475 187 277 98 513 178 524 179 11 0 261 -79 555 -177z m-1887 -404 l207
-72 0 -329 c0 -363 1 -368 65 -407 17 -10 254 -104 527 -209 359 -138 509
-191 539 -191 30 0 179 53 538 191 273 105 508 197 523 205 14 7 36 29 47 47
20 33 21 47 21 355 l0 320 150 50 150 50 0 -441 c0 -412 1 -445 19 -477 20
-38 88 -80 130 -80 50 0 114 41 139 90 22 44 22 47 22 507 l0 463 255 0 255 0
0 -1540 0 -1540 -2250 0 -2250 0 0 1540 0 1540 353 0 352 0 208 -72z m922
-323 c212 -74 398 -135 414 -135 15 0 202 59 416 130 214 72 393 130 397 130
4 0 8 -85 8 -188 l0 -188 -410 -157 -410 -158 -410 158 -410 158 0 192 c0 116
4 193 10 193 5 0 183 -61 395 -135z m1165 -3140 l0 -145 -750 0 -750 0 0 145
0 145 750 0 750 0 0 -145z"
              />
              <path
                d="M672 2390 c-18 -11 -41 -34 -52 -52 -19 -31 -20 -51 -20 -378 0 -395
0 -396 80 -437 43 -22 52 -23 374 -23 312 0 332 1 372 21 31 15 48 32 63 63
20 40 21 59 21 377 0 373 -1 381 -69 426 -34 23 -37 23 -385 23 -333 0 -353
-1 -384 -20z m528 -435 l0 -145 -145 0 -145 0 0 145 0 145 145 0 145 0 0 -145z"
              />
              <path
                d="M1868 2385 c-91 -62 -83 -209 14 -262 31 -17 99 -18 1285 -18 l1252
0 28 21 c97 72 98 205 1 264 -32 20 -53 20 -1288 20 l-1255 0 -37 -25z"
              />
              <path
                d="M1880 1788 c-56 -39 -75 -73 -74 -134 0 -58 17 -91 68 -128 27 -21
33 -21 1274 -24 l1247 -2 44 22 c59 31 84 76 78 146 -4 61 -28 99 -78 124 -32
17 -114 18 -1280 18 l-1246 0 -33 -22z"
              />
            </g>
          </svg>